<mxfile host="app.diagrams.net" modified="2023-08-03T12:11:48.290Z" agent="Mozilla/5.0 (Windows NT 10.0; Win64; x64) AppleWebKit/537.36 (KHTML, like Gecko) Chrome/115.0.0.0 Safari/537.36" version="21.6.6" etag="DJLkEL-FVY9tyURSzbW6" type="github">
  <diagram name="PÃ¡gina-1" id="DFJ0ySm88tbj6B0kCpyt">
    <mxGraphModel>
      <root>
        <mxCell id="0" />
        <mxCell id="1" parent="0" />
      </root>
    </mxGraphModel>
  </diagram>
</mxfile>
